_________________________  Visit us at _________________________
  
http://p2pdl.com  ____________________________  http://p2pdl.com


The Guilt Trip 2012 BRRip 720p x264 AAC - PRiSTiNE [P2PDL]

Genre: Comedy
Plot: As inventor Andy Brewster is about to embark 
on the road trip of a lifetime, a quick stop at his 
mom's house turns into an unexpected cross-country 
voyage with her along for the ride.
Director: Anne Fletcher
Stars: Barbra Streisand, Seth Rogen, Julene Renee-Preciado
Rated: Rated PG-13 for language and some risque material

Info: 
http://www.imdb.com/title/tt1694020/

General
Complete name                  : The Guilt Trip 2012 BRRip 720p x264 AAC - PRiSTiNE.mp4
Format                         : MPEG-4
Format profile                 : Base Media
Codec ID                       : isom
File size                      : 536 MiB
Duration                       : 1h 35mn
Overall bit rate mode          : Variable
Overall bit rate               : 784 Kbps

Video
Format                         : AVC
Format/Info                    : Advanced Video Codec
Format profile                 : High 10@L4.1
Bit rate                       : 702 Kbps
Width                          : 1 280 pixels
Height                         : 544 pixels
Display aspect ratio           : 2.35:1
Frame rate mode                : Constant
Frame rate                     : 23.976 fps
Bit depth                      : 10 bits
Stream size                    : 480 MiB (89%)
Writing library                : x264 core 130 r2273 b3065e6

Audio
Format                         : AAC
Format/Info                    : Advanced Audio Codec
Bit rate                       : 79.4 Kbps
Channel(s)                     : 2 channels
Channel positions              : Front: L R
Sampling rate                  : 48.0 KHz / 24.0 KHz
Compression mode               : Lossy
Stream size                    : 54.3 MiB (10%)
Language                       : English

Subtitle                       : Yes (English)
Source                         : 720p.BluRay.x264-SPARKS (Thanks)

Screens:
 
http://www.ultraimg.com/images/lDeOn.jpg 
http://www.ultraimg.com/images/rK9XD.jpg 
http://www.ultraimg.com/images/IWkMq.jpg 
http://www.ultraimg.com/images/7quDh.jpg 
http://www.ultraimg.com/images/nbd18.jpg

----------------------------------------------------------------------------------------------------


Encoded using revolutionary 10bit encoding, which enables us to provide you more crispier 
and sharper images at small sizes, just make sure you follow our instructions without a fault.
Recommend to you to use latest version of VLC player. Install K-Lite Codec Pack or shark007 codecs
in case of any kind of problem in playback (For non-VLC Media Player users). Alternatively, install
Core AVC codecs, the fastest decoder that there is coupled with Community Center Codec Pack and play
on Windows Media Player Classic. Check sample to be sure.
Enjoy!

Encoder Notes:Looking For Early Access To Anything You Can Provide DVDScr, R5, DVDR, BluRay, Direct
Audio, Music Releases and Seedboxes. We require dedicated servers, so as to do more 
and fast releases of movies.
If You Got anything to offer please contact us at "prg@hush.com".

Face book Fan Page:   
http://www.fb.me/p2pdl